<!DOCTYPE svg PUBLIC "-//W3C//DTD SVG 20010904//EN" "http://www.w3.org/TR/2001/REC-SVG-20010904/DTD/svg10.dtd">
<svg version="1.0" xmlns="http://www.w3.org/2000/svg" width="1200px" height="1200px" viewBox="0 0 12000 12000" preserveAspectRatio="xMidYMid meet">
<g id="layer101" fill="#000000" stroke="none">
 <path d="M1530 6731 c-8 -5 -41 -12 -72 -16 -32 -3 -58 -11 -58 -16 0 -5 -11 -9 -24 -9 -14 0 -28 -4 -31 -10 -7 -11 -92 -50 -110 -50 -7 0 -15 -7 -19 -15 -3 -8 -14 -15 -25 -15 -11 0 -25 -9 -31 -20 -6 -11 -17 -20 -25 -20 -8 0 -15 -5 -15 -10 0 -6 -7 -13 -15 -17 -20 -7 -75 -62 -75 -73 0 -5 -9 -14 -20 -20 -11 -6 -20 -16 -20 -23 0 -7 -13 -28 -30 -47 -16 -19 -29 -39 -30 -43 0 -5 -12 -24 -26 -43 -15 -19 -23 -34 -20 -34 4 0 0 -12 -8 -27 -7 -16 -17 -47 -21 -70 -3 -22 -13 -49 -20 -60 -11 -13 -14 -56 -15 -173 0 -143 3 -162 29 -246 28 -90 45 -126 69 -152 6 -7 12 -21 12 -30 0 -30 128 -177 209 -241 56 -45 227 -129 279 -137 23 -4 42 -11 42 -16 0 -6 7 -8 15 -5 8 4 17 3 19 -2 12 -20 360 -19 429 1 51 14 66 18 92 21 11 1 34 10 52 20 18 9 37 17 43 17 7 0 23 9 37 20 14 11 34 20 43 20 10 0 20 7 24 15 3 8 12 15 21 15 8 0 15 5 15 10 0 6 6 10 14 10 32 0 246 236 246 272 0 8 7 23 15 34 8 10 15 28 15 40 0 11 9 30 20 42 13 14 20 35 20 62 0 23 6 48 14 55 10 11 13 45 11 152 -3 141 -6 167 -18 179 -4 4 -7 26 -7 49 0 29 -6 47 -20 60 -11 10 -20 28 -20 39 0 26 -30 87 -54 111 -9 9 -14 20 -11 24 2 4 -27 41 -65 82 -39 41 -70 77 -70 82 0 4 -6 7 -12 7 -7 0 -29 16 -48 35 -19 19 -41 35 -48 35 -8 0 -20 6 -26 13 -6 7 -31 21 -56 31 -25 10 -67 28 -95 41 -82 39 -123 45 -345 51 -91 2 -172 0 -180 -5z m308 -415 c15 -8 49 -24 75 -37 66 -33 157 -137 157 -179 0 -8 7 -21 16 -31 23 -25 23 -279 0 -314 -9 -13 -16 -31 -16 -40 0 -16 -39 -77 -52 -83 -5 -2 -8 -9 -8 -16 0 -16 -92 -84 -127 -92 -15 -4 -36 -14 -47 -23 -13 -12 -43 -17 -110 -19 -83 -3 -112 2 -156 27 -8 4 -33 16 -55 27 -78 35 -175 162 -175 228 0 13 -6 26 -12 28 -18 6 -18 202 0 219 6 7 12 24 12 38 0 75 99 193 205 246 65 32 76 35 168 35 66 0 108 -5 125 -14z"/>
 <path d="M8581 6731 c-8 -5 -46 -12 -85 -16 -39 -4 -75 -11 -81 -15 -5 -4 -37 -15 -70 -25 -33 -9 -74 -24 -92 -31 -17 -8 -38 -14 -46 -14 -8 0 -17 -7 -21 -15 -3 -8 -14 -15 -24 -15 -28 0 -52 -32 -52 -68 0 -18 4 -32 8 -32 9 0 52 -89 52 -106 0 -5 19 -46 42 -91 39 -77 44 -83 72 -83 17 0 42 7 56 15 65 36 129 65 146 65 11 0 28 6 39 14 11 7 40 16 65 19 25 3 59 9 75 13 53 13 253 10 267 -3 6 -7 19 -13 28 -13 18 0 54 -35 63 -62 8 -23 -15 -80 -29 -74 -7 3 -15 -2 -18 -10 -3 -8 -15 -14 -26 -14 -11 0 -20 -4 -20 -8 0 -13 -205 -68 -275 -74 -16 -1 -39 -8 -50 -15 -11 -7 -34 -13 -52 -13 -18 0 -50 -9 -70 -20 -21 -11 -45 -20 -53 -20 -8 -1 -33 -12 -55 -25 -22 -14 -47 -28 -55 -32 -25 -11 -120 -106 -120 -120 0 -7 -3 -13 -7 -13 -11 0 -41 -76 -54 -140 -7 -34 -9 -82 -4 -130 10 -109 10 -109 23 -122 7 -7 12 -19 12 -28 0 -9 11 -30 25 -46 14 -16 25 -33 25 -38 0 -13 132 -136 146 -136 6 0 19 -9 29 -20 10 -11 26 -20 35 -20 9 0 21 -5 28 -12 6 -6 53 -22 104 -36 84 -22 111 -24 283 -23 200 1 223 2 243 15 6 4 17 4 22 1 6 -4 16 -2 23 3 7 6 30 13 52 17 22 4 52 14 67 21 15 8 38 14 51 14 13 0 32 9 42 20 10 11 29 20 42 20 45 0 49 71 9 145 -9 17 -16 37 -16 46 0 9 -7 22 -15 29 -8 7 -15 28 -15 46 0 19 -4 34 -9 34 -5 0 -15 16 -22 35 -16 43 -28 48 -79 30 -22 -8 -40 -12 -40 -9 0 3 -10 -2 -22 -10 -12 -9 -33 -16 -45 -16 -13 0 -23 -4 -23 -9 0 -14 -58 -31 -106 -31 -24 0 -44 -5 -46 -12 -6 -17 -213 -17 -229 0 -7 6 -22 12 -33 12 -25 0 -86 70 -86 97 0 23 65 83 89 83 9 0 26 7 37 15 10 8 38 15 61 15 23 0 45 5 48 11 4 6 13 8 21 5 7 -3 16 -1 19 3 3 5 35 14 72 21 37 6 73 15 78 20 6 5 27 10 46 11 19 2 41 8 49 14 8 7 28 15 44 19 108 26 243 129 286 219 11 23 28 81 36 129 15 80 15 93 0 160 -16 70 -48 150 -70 174 -6 7 -20 24 -31 40 -24 33 -77 84 -87 84 -5 0 -16 8 -26 18 -9 9 -37 24 -62 32 -25 8 -49 20 -53 27 -4 7 -17 13 -27 13 -10 0 -21 4 -25 9 -3 5 -31 12 -63 16 -31 3 -65 10 -74 15 -22 13 -378 13 -397 1z"/>
 <path d="M2962 6698 c-15 -15 -17 -763 -2 -773 5 -3 183 -7 394 -8 293 -2 388 -5 398 -14 6 -7 23 -13 36 -13 53 0 122 -82 122 -146 0 -13 5 -24 10 -24 15 0 12 -34 -5 -66 -8 -16 -15 -36 -15 -45 0 -19 -76 -89 -96 -89 -8 0 -29 -8 -47 -17 -28 -16 -76 -18 -417 -23 l-385 -5 -3 -174 c-1 -98 2 -178 7 -185 7 -8 137 -9 488 -4 263 3 484 7 491 9 6 1 12 6 12 10 0 5 17 11 38 14 20 4 49 15 64 26 15 10 34 19 41 19 8 0 20 7 27 15 7 8 19 15 27 15 8 0 21 6 28 13 8 6 30 23 49 37 19 14 47 44 61 67 15 23 33 44 41 47 8 3 14 14 14 25 0 11 5 21 11 23 7 2 13 19 16 38 2 18 10 41 17 49 8 9 14 18 14 21 0 3 3 48 7 101 9 116 -4 208 -42 302 -23 57 -44 85 -120 164 -51 52 -97 92 -101 89 -5 -3 -18 3 -29 14 -12 10 -23 16 -26 13 -3 -3 -25 4 -49 15 -24 11 -58 23 -75 27 -18 4 -33 11 -33 16 0 5 -103 9 -246 9 l-245 0 2 195 c1 143 -2 199 -11 210 -10 12 -50 15 -234 15 -159 0 -225 -3 -234 -12z"/>
 <path d="M4747 6703 c-4 -3 -7 -89 -7 -190 l0 -183 634 0 c408 0 637 4 641 10 12 19 7 341 -6 356 -10 12 -109 14 -634 14 -342 0 -625 -3 -628 -7z"/>
 <path d="M6407 6703 c-4 -3 -7 -181 -7 -395 0 -303 3 -388 13 -389 6 0 176 0 377 1 313 1 368 -1 385 -14 11 -9 34 -16 51 -16 18 0 39 -8 49 -20 10 -11 24 -20 32 -20 7 0 17 -8 20 -17 4 -10 10 -21 15 -24 13 -9 30 -118 22 -152 -11 -51 -80 -136 -111 -137 -6 0 -24 -5 -40 -12 -45 -19 -61 -20 -447 -26 l-369 -7 2 -180 c1 -99 3 -181 5 -182 6 -6 884 -3 916 3 87 16 207 57 236 79 18 14 38 25 44 25 29 0 170 146 170 177 0 6 6 16 13 20 15 10 32 55 58 148 20 74 24 215 7 247 -5 10 -9 34 -10 53 -1 19 -4 35 -7 35 -9 0 -31 52 -31 72 0 10 -7 21 -15 24 -8 4 -15 12 -15 20 0 8 -9 22 -20 31 -11 10 -20 23 -20 30 0 7 -4 13 -10 13 -5 0 -28 18 -52 40 -24 22 -58 47 -75 55 -32 16 -46 29 -19 19 9 -4 14 3 14 22 0 19 9 36 28 51 15 12 25 25 21 29 -3 4 8 25 26 48 18 22 37 49 42 58 25 42 108 158 121 169 8 6 14 20 14 30 0 11 7 19 15 19 16 0 19 20 9 58 l-6 22 -241 -2 c-230 -3 -242 -4 -252 -23 -5 -11 -23 -35 -40 -54 -16 -18 -30 -37 -30 -42 0 -11 -26 -49 -47 -68 -10 -8 -18 -22 -18 -30 0 -8 -7 -21 -15 -30 -27 -28 -85 -109 -85 -119 0 -6 -7 -12 -15 -16 -8 -3 -15 -12 -15 -21 0 -12 -16 -15 -90 -15 -73 0 -90 3 -90 15 0 8 -7 15 -15 15 -13 0 -15 28 -15 189 0 163 -2 190 -16 195 -21 8 -459 8 -467 -1z"/>
 <path d="M9830 6691 c-11 -21 -14 -318 -4 -345 6 -14 71 -16 640 -16 l634 0 -2 188 -3 187 -627 3 c-612 2 -627 2 -638 -17z"/>
 <path d="M3450 6310 c0 -5 7 -10 15 -10 8 0 15 5 15 10 0 6 -7 10 -15 10 -8 0 -15 -4 -15 -10z"/>
 <path d="M5370 6080 l-625 -5 -3 -177 -2 -177 32 -6 c18 -3 305 -4 638 -3 l605 3 2 177 c1 127 -2 179 -10 185 -7 4 -293 6 -637 3z"/>
 <path d="M9837 6078 c-13 -8 -23 -278 -12 -335 l6 -33 622 0 c342 0 628 4 635 8 9 7 12 51 10 185 l-3 177 -623 3 c-343 1 -629 -1 -635 -5z"/>
 <path d="M4740 5295 l0 -185 631 -2 c347 -2 635 0 640 3 8 4 13 201 9 357 0 9 -135 12 -640 12 l-640 0 0 -185z"/>
 <path d="M9827 5473 c-9 -8 -8 -323 1 -346 7 -16 45 -17 637 -17 l630 0 3 185 2 185 -633 0 c-349 0 -637 -3 -640 -7z"/>
 </g>

</svg>